<?xml version="1.0" encoding="UTF-8"?>
<svg id="Layer_1" xmlns="http://www.w3.org/2000/svg" version="1.1" viewBox="0 0 22 22">
  <!-- Generator: Adobe Illustrator 29.5.1, SVG Export Plug-In . SVG Version: 2.1.0 Build 141)  -->
  <defs>
    <style>
      .st0 {
        fill: #00cc3b;
      }
    </style>
  </defs>
  <path class="st0" d="M2.7,8.29s.5.47,1.45,1.02c.37.21.81.43,1.32.64,1.35.56,3.19,1.05,5.53,1.05,1.49,0,2.77-.2,3.86-.49,1.28-.34,2.29-.8,3.02-1.22.92-.53,1.39-.98,1.42-1l.19-.2s.01-.06.01-.09c0-1.66-1.34-3-3-3-.22,0-.44.02-.65.07-.39-1.2-1.52-2.07-2.85-2.07-.72,0-1.38.26-1.9.68-.56-1-1.63-1.68-2.85-1.68-1.71,0-3.11,1.33-3.23,3h-.02c-1.38,0-2.5,1.12-2.5,2.5,0,.24.03.47.1.69l.1.1Z"/>
  <path class="st0" d="M20,9s-.39.39-1.17.89c-.27.17-.59.36-.95.54-.37.2-.79.39-1.26.56-1.42.56-3.3,1.01-5.62,1.01-3.07,0-5.36-.79-6.85-1.55-1.43-.73-2.15-1.45-2.15-1.45l-2,7s2.5,4,11,4,11-4,11-4l-2-7ZM11,18s-2-1.64-2-2.91c0-.64.29-1.09,1-1.09.64,0,1,.73,1,.73,0,0,.36-.73,1-.73.71,0,1,.45,1,1.09,0,1.27-2,2.91-2,2.91Z"/>
</svg>