<?xml version="1.0" encoding="UTF-8"?>
<svg id="Layer_1" xmlns="http://www.w3.org/2000/svg" version="1.1" viewBox="0 0 22 22">
  <!-- Generator: Adobe Illustrator 29.5.1, SVG Export Plug-In . SVG Version: 2.1.0 Build 141)  -->
  <defs>
    <style>
      .st0 {
        fill: #00cc3b;
      }
    </style>
  </defs>
  <path class="st0" d="M11,0C4.92,0,0,4.92,0,11s4.92,11,11,11,11-4.92,11-11S17.08,0,11,0ZM11,1c2.58,0,4.92.99,6.7,2.6l-5.15,5.15c-.01-.13-.05-.26-.05-.39v-4.36h-3v4.36c0,.64-.15,1.28-.44,1.85l-2.02,4.04-3.45,3.45c-1.61-1.78-2.6-4.12-2.6-6.7C1,5.49,5.49,1,11,1ZM11,21c-2.58,0-4.92-.99-6.7-2.6l1.36-1.36c-.14.47.2.96.71.96h9.25c.56,0,.92-.58.67-1.08l-3.36-6.71c-.05-.1-.07-.22-.12-.32l5.58-5.58c1.61,1.78,2.6,4.12,2.6,6.7,0,5.51-4.49,10-10,10Z"/>
</svg>