<?xml version="1.0" encoding="UTF-8"?>
<svg id="Layer_1" xmlns="http://www.w3.org/2000/svg" version="1.1" viewBox="0 0 22 22">
  <!-- Generator: Adobe Illustrator 29.5.1, SVG Export Plug-In . SVG Version: 2.1.0 Build 141)  -->
  <defs>
    <style>
      .st0 {
        fill: #00cc3b;
      }
    </style>
  </defs>
  <path class="st0" d="M15.86,13.78c-1.94-2.18-2.08-4.28-4.86-4.28s-2.92,2.1-4.86,4.28c-1.83,2.06-3.64,2.62-3.64,5.07s1.77,3.15,3.86,3.15,2.67-1,4.64-1,2.56,1,4.64,1,3.86-.69,3.86-3.15-1.81-3.01-3.64-5.07ZM13,16.67h-1.33v1.33h-1.33v-1.33h-1.33v-1.33h1.33v-1.33h1.33v1.33h1.33v1.33Z"/>
  <path class="st0" d="M7.7,7.14c1.4-.11,2.44-1.52,2.28-3.49C9.86,2.02,8.48-.1,7.14,0c-1.35.11-2.37,2.42-2.24,4.05.16,1.97,1.4,3.2,2.8,3.09Z"/>
  <path class="st0" d="M3.43,12.93c1.36-.35,2.13-1.92,1.64-3.84-.41-1.58-2.13-3.43-3.44-3.09S-.28,8.79.13,10.37c.5,1.91,1.94,2.91,3.3,2.56Z"/>
  <path class="st0" d="M20.37,6c-1.31-.34-3.03,1.51-3.44,3.09-.5,1.91.27,3.48,1.64,3.84,1.36.35,2.8-.64,3.3-2.56.41-1.58-.19-4.03-1.5-4.37Z"/>
  <path class="st0" d="M14.3,7.14c1.4.11,2.65-1.12,2.8-3.09C17.23,2.42,16.21.11,14.86,0c-1.35-.11-2.72,2.01-2.85,3.64-.16,1.97.88,3.38,2.28,3.49Z"/>
</svg>